# xmcd
#
# Track frame offsets:
#	150
#	11568
#	21353
#	36198
#	47694
#	63745
#	80280
#	100563
#	111937
#	124295
#	139180
#	155429
#	166420
#	182929
#	192786
#	206378
#	219838
#	233905
#	250939
#	264657
#	285139
#	304835
#	316802
#
# Disc length: 4337 seconds
#
# Revision: 0
# Processed by: cddbd v1.5.2PL0 Copyright (c) Steve Scherf et al.
# Submitted via: EasyCDDAExtractor 15.3.0.1
#
DISCID=3c10ef17
DTITLE=Marie Rottrová - Zlatá kolekce 1968/2010
DYEAR=2011
DGENRE=Pop
TTITLE0=Baby, vítej k nám
TTITLE1=Paroloď
TTITLE2=Dívčí král
TTITLE3=Volej známý číslo
TTITLE4=Pane můj
TTITLE5=Tisíc tváří lásky
TTITLE6=Je ti to málo?
TTITLE7=Labutě
TTITLE8=Mít pouhej tejden
TTITLE9=Dlouhá černá limuzína
TTITLE10=Jak na tom právě jsem
TTITLE11=Svatba U dvou lilií
TTITLE12=Láska křídla má
TTITLE13=Zatracenej čáp
TTITLE14=Ranní loučení
TTITLE15=On má
TTITLE16=Expres Mléčné dráhy
TTITLE17=Oči
TTITLE18=Co mám, to dám
TTITLE19=Čas pro mou lásku
TTITLE20=Nádražní ráj
TTITLE21=Ty, kdo jdeš kolem
TTITLE22=Caciby
EXTD=
EXTT0=
EXTT1=
EXTT2=
EXTT3=
EXTT4=
EXTT5=
EXTT6=
EXTT7=
EXTT8=
EXTT9=
EXTT10=
EXTT11=
EXTT12=
EXTT13=
EXTT14=
EXTT15=
EXTT16=
EXTT17=
EXTT18=
EXTT19=
EXTT20=
EXTT21=
EXTT22=
PLAYORDER=
